<?xml version="1.0" encoding="utf-8"?>
<!-- Generator: Adobe Illustrator 18.0.0, SVG Export Plug-In . SVG Version: 6.00 Build 0)  -->
<!DOCTYPE svg PUBLIC "-//W3C//DTD SVG 1.1//EN" "http://www.w3.org/Graphics/SVG/1.1/DTD/svg11.dtd">
<svg version="1.1"
	 id="svg12430" inkscape:version="0.91 r13725" sodipodi:docname="more-results.svg" xmlns:cc="http://creativecommons.org/ns#" xmlns:dc="http://purl.org/dc/elements/1.1/" xmlns:rdf="http://www.w3.org/1999/02/22-rdf-syntax-ns#" xmlns:svg="http://www.w3.org/2000/svg" xmlns:sodipodi="http://sodipodi.sourceforge.net/DTD/sodipodi-0.dtd" xmlns:inkscape="http://www.inkscape.org/namespaces/inkscape"
	 xmlns="http://www.w3.org/2000/svg" xmlns:xlink="http://www.w3.org/1999/xlink" x="0px" y="0px" viewBox="0 0 16 16"
	 enable-background="new 0 0 16 16" xml:space="preserve">
<sodipodi:namedview  inkscape:snap-bbox-edge-midpoints="true" inkscape:snap-nodes="true" inkscape:window-width="1920" inkscape:showpageshadow="false" inkscape:window-maximized="1" inkscape:pageshadow="2" inkscape:document-units="px" inkscape:snap-bbox="true" inkscape:bbox-nodes="true" inkscape:bbox-paths="true" inkscape:current-layer="g14642-3-0" inkscape:window-y="23" inkscape:pageopacity="1" inkscape:window-height="1035" inkscape:window-x="0" inkscape:snap-intersection-paths="true" inkscape:object-nodes="true" inkscape:object-paths="true" bordercolor="#666666" borderopacity="1.0" id="base" inkscape:cx="6.0810901" inkscape:zoom="22.627417" inkscape:cy="9.9882296" showgrid="true" pagecolor="#7a7a7a" borderlayer="true">
	<inkscape:grid  type="xygrid" id="grid13002"></inkscape:grid>
</sodipodi:namedview>
<g opacity="0.7">
	<path fill="#DBDBDB" d="M8,0C3.6,0,0,3.6,0,8s3.6,8,8,8s8-3.6,8-8S12.4,0,8,0z M11.5,8.9H8.9v2.6c0,0.5-0.4,0.9-0.9,0.9
		c-0.5,0-0.9-0.4-0.9-0.9V8.9H4.5C4,8.9,3.7,8.5,3.7,8c0-0.5,0.4-0.9,0.9-0.9h2.6V4.5C7.1,4,7.5,3.7,8,3.7c0.5,0,0.9,0.4,0.9,0.9
		v2.6h2.6c0.5,0,0.9,0.4,0.9,0.9C12.3,8.5,12,8.9,11.5,8.9z"/>
	<rect x="7.1" y="7.1" fill="#DBDBDB" width="1.7" height="1.7"/>
</g>
</svg>
